<?xml version="1.0" standalone="no"?>
<!DOCTYPE svg PUBLIC "-//W3C//DTD SVG 20010904//EN"
 "http://www.w3.org/TR/2001/REC-SVG-20010904/DTD/svg10.dtd">
<svg version="1.0" xmlns="http://www.w3.org/2000/svg"
 width="1536.000000pt" height="1024.000000pt" viewBox="0 0 1536.000000 1024.000000"
 preserveAspectRatio="xMidYMid meet">

<g transform="translate(0.000000,1024.000000) scale(0.100000,-0.100000)"
fill="#000000" stroke="none">
<path d="M12124 8361 c-51 -9 -88 -37 -131 -102 -78 -115 -118 -271 -124 -482
-2 -65 6 -86 32 -87 3 0 9 44 12 98 10 157 41 284 93 387 26 50 59 102 75 116
32 29 109 50 154 42 28 -5 29 -4 10 10 -27 19 -71 26 -121 18z"/>
<path d="M12568 8002 c-10 -2 -18 -10 -18 -17 0 -8 -5 -17 -12 -21 -7 -5 -9
-2 -4 7 4 8 1 6 -7 -3 -8 -10 -18 -14 -23 -10 -4 4 -3 0 3 -9 10 -12 7 -18
-18 -33 -16 -9 -27 -21 -24 -26 3 -5 -4 -15 -16 -24 -19 -13 -20 -18 -9 -31 9
-11 9 -15 1 -15 -7 0 -19 -7 -27 -15 -9 -8 -12 -15 -8 -15 4 0 0 -8 -9 -18
-10 -11 -14 -26 -10 -41 4 -17 3 -22 -6 -17 -7 5 -20 -3 -32 -18 -11 -14 -27
-26 -34 -26 -8 0 -12 -6 -9 -14 3 -8 0 -17 -7 -22 -8 -4 -10 -3 -5 4 4 7 3 12
-3 12 -9 0 -27 -38 -23 -52 1 -4 -17 0 -41 8 -77 27 -23 -4 113 -66 195 -89
363 -170 380 -185 8 -7 47 -30 85 -51 39 -20 84 -46 100 -56 33 -20 64 -24 66
-8 1 6 2 16 3 23 1 6 -5 19 -14 27 -15 15 -22 82 -8 73 5 -2 8 1 8 6 0 6 -4
11 -8 11 -5 0 -14 33 -20 73 -6 39 -14 82 -17 95 -3 12 -7 31 -10 43 -2 12 -9
27 -16 35 -6 8 -9 21 -5 29 3 9 2 14 -3 10 -5 -3 -12 14 -16 37 -4 24 -21 62
-37 86 -17 24 -31 50 -32 57 -1 8 -10 22 -19 33 -9 10 -14 22 -10 25 3 4 -2 7
-12 7 -10 0 -16 3 -12 6 10 10 -33 45 -82 67 -48 22 -65 25 -93 19z"/>
<path d="M11181 7639 c-68 -4 -169 -17 -225 -29 -110 -24 -270 -86 -321 -124
-38 -30 -65 -82 -65 -127 0 -48 102 -145 186 -177 l60 -24 23 -96 c12 -53 36
-137 52 -187 16 -49 30 -111 31 -137 2 -27 6 -48 9 -48 14 0 19 51 29 252 6
114 15 218 20 230 7 20 9 17 9 -19 1 -35 4 -41 17 -36 15 5 15 3 1 -23 -15
-29 -20 -54 -18 -87 1 -17 2 -17 17 -3 8 9 45 30 81 48 57 27 79 32 167 36 55
2 107 9 114 14 6 6 12 23 12 37 0 40 -19 59 -80 80 -30 11 -49 20 -41 20 8 1
19 8 25 16 10 14 93 26 171 26 10 0 25 5 32 11 7 6 13 7 13 3 0 -4 7 -2 16 6
21 18 61 19 117 3 26 -7 47 -10 47 -6 0 3 5 1 12 -6 7 -7 25 -12 41 -12 24 0
28 -3 22 -17 -9 -21 -13 -110 -7 -136 4 -16 16 -17 109 -16 57 1 107 -2 110
-5 4 -3 1 -6 -5 -6 -6 0 -9 -11 -6 -25 4 -21 0 -25 -33 -30 -83 -13 -165 -77
-157 -123 3 -15 1 -21 -6 -17 -5 3 -10 -2 -11 -12 0 -10 -2 -26 -4 -35 -2 -10
1 -18 6 -18 9 0 13 15 10 34 -1 4 12 6 28 4 16 -2 29 0 28 5 -3 16 63 57 121
73 37 11 71 14 106 10 48 -6 143 -34 121 -36 -5 0 -3 -6 5 -13 8 -7 16 -18 18
-26 3 -12 0 -12 -12 -2 -13 11 -14 8 -9 -25 7 -40 6 -40 -47 -2 -90 64 -245
25 -295 -75 -24 -48 -42 -138 -34 -177 6 -34 6 -34 8 11 3 100 59 195 135 230
53 24 83 24 150 -1 46 -18 60 -29 88 -72 28 -45 33 -61 33 -114 0 -34 3 -57 7
-51 18 27 8 114 -18 163 -14 27 -20 43 -13 37 18 -18 42 -16 35 2 -3 8 3 22
12 31 16 17 17 17 21 -1 1 -10 12 -27 22 -38 12 -14 17 -28 13 -41 -6 -18 -5
-19 10 -7 14 12 16 11 16 -9 0 -13 8 -30 18 -39 23 -21 72 -94 72 -108 0 -6 7
-16 15 -23 8 -7 15 -19 15 -28 0 -8 8 -21 18 -29 16 -14 16 -14 -1 -9 -14 4
-16 2 -8 -12 15 -28 45 -24 66 9 11 17 19 34 17 40 -1 5 3 9 9 9 5 0 7 5 4 10
-3 6 1 13 9 16 9 3 16 17 16 30 0 13 4 24 10 24 17 0 43 -49 37 -70 -8 -30 11
-90 28 -90 14 0 16 -7 19 -77 0 -17 4 -34 8 -38 4 -4 2 -18 -3 -32 -5 -14 -7
-29 -3 -34 3 -5 -1 -9 -8 -9 -9 0 -10 -3 -2 -8 7 -4 8 -15 3 -27 -4 -11 -8
-14 -8 -6 -1 8 -4 11 -7 8 -4 -4 -1 -14 7 -24 8 -9 9 -14 3 -10 -7 4 -14 -2
-17 -13 -3 -11 -2 -20 1 -20 4 0 7 -16 7 -35 0 -19 -3 -35 -8 -35 -9 0 -5 -23
7 -32 14 -10 11 -68 -7 -120 -9 -27 -12 -48 -8 -48 4 0 13 17 19 38 l11 37
108 0 c103 0 110 1 155 30 27 17 48 36 48 43 0 6 5 12 10 12 30 0 121 156 134
230 4 19 9 85 12 146 6 122 9 113 -72 201 -11 12 -21 29 -21 38 0 21 31 19 52
-5 20 -22 37 -27 30 -7 -3 6 11 23 30 37 21 15 41 43 52 69 28 72 3 134 -106
270 -30 37 -167 141 -187 141 -6 0 -105 69 -114 80 -3 4 -31 21 -62 39 -32 18
-58 38 -58 45 0 12 -177 102 -278 142 -55 21 -67 11 -13 -13 22 -10 41 -21 41
-26 0 -4 5 -5 10 -2 6 3 10 2 10 -3 0 -5 10 -14 23 -21 16 -9 17 -10 2 -5 -11
4 -36 10 -55 15 -19 4 -80 23 -135 42 -102 35 -313 86 -465 111 -199 34 -420
47 -619 35z m1399 -244 c0 4 14 -2 30 -12 57 -33 30 -32 -46 2 -42 19 -78 35
-80 35 -2 0 -4 5 -4 10 0 6 23 -1 50 -15 28 -14 50 -23 50 -20z m-1193 -71
c-3 -3 -12 -4 -19 -1 -8 3 -5 6 6 6 11 1 17 -2 13 -5z m-277 -128 c0 -2 -16
-16 -35 -30 -19 -15 -35 -23 -35 -17 0 5 15 18 33 29 36 23 37 23 37 18z
m1130 -320 c0 -11 -19 -15 -25 -6 -3 5 1 10 9 10 9 0 16 -2 16 -4z"/>
<path d="M12109 7620 c24 -11 46 -18 49 -15 5 5 -26 18 -68 29 -14 3 -5 -3 19
-14z"/>
<path d="M12250 7555 c0 -8 61 -37 67 -31 3 2 -9 12 -26 20 -31 17 -41 19 -41
11z"/>
<path d="M11163 6860 c-34 -20 -76 -78 -87 -120 -7 -27 -8 -29 39 43 28 42 80
67 141 67 62 0 90 -19 110 -75 7 -22 12 -40 11 -41 -1 -1 -20 6 -42 16 -57 28
-91 25 -125 -8 -51 -52 -52 -141 -2 -201 25 -30 33 -34 77 -33 44 1 53 5 77
34 44 55 50 128 17 232 -16 54 -27 71 -52 86 -43 27 -121 26 -164 0z m114
-146 c3 -9 -4 -24 -17 -36 -18 -17 -24 -18 -31 -7 -12 19 -11 33 3 47 17 17
37 15 45 -4z"/>
<path d="M12006 6769 c-40 -11 -61 -33 -76 -78 -19 -57 -6 -108 40 -153 54
-54 109 -49 169 16 34 37 40 118 12 164 -28 44 -91 67 -145 51z m24 -39 c18
-12 3 -43 -25 -48 -29 -6 -41 15 -20 38 21 23 24 23 45 10z"/>
<path d="M10860 6553 c0 -27 7 -73 16 -103 9 -30 19 -77 23 -105 6 -45 8 -38
16 65 11 134 10 148 -12 172 -29 32 -43 22 -43 -29z"/>
<path d="M11646 6412 c20 -17 20 -19 5 -42 -12 -18 -12 -22 -2 -16 9 6 12 5 9
-5 -3 -8 -11 -13 -17 -11 -7 1 -10 -2 -6 -8 18 -29 -65 -83 -147 -95 -37 -5
-73 -13 -73 -15 0 -1 -18 -4 -40 -6 -22 -3 -43 -9 -48 -13 -15 -15 20 -72 63
-104 42 -30 49 -32 125 -31 134 1 235 45 235 102 0 9 5 30 12 48 9 25 9 45 -1
87 -12 57 -42 93 -94 115 -39 17 -46 14 -21 -6z"/>
<path d="M12446 6385 c4 -8 1 -15 -4 -15 -6 0 -10 -17 -9 -37 1 -26 -2 -37
-10 -35 -7 1 -13 -3 -13 -9 0 -5 -4 -8 -9 -5 -4 3 -8 -7 -9 -22 0 -46 -2 -53
-11 -48 -12 8 -46 -25 -46 -44 0 -8 -10 -16 -22 -18 -13 -2 -23 -8 -23 -13 0
-6 -7 -17 -16 -26 -8 -9 -13 -22 -10 -29 8 -20 -11 -17 -23 4 -9 14 -12 15
-20 2 -12 -18 -5 -31 13 -24 24 9 35 -50 21 -116 -4 -19 -8 -42 -9 -50 -2 -16
-27 -72 -36 -80 -3 -3 -13 -21 -23 -41 -10 -19 -36 -55 -58 -80 -21 -24 -39
-47 -39 -51 0 -4 -7 -5 -15 -2 -8 4 -15 2 -15 -3 0 -9 -75 -109 -108 -146
-114 -122 -195 -171 -347 -210 -5 -1 -16 -6 -23 -10 -6 -5 -38 -7 -70 -6 -79
2 -81 2 -75 -21 3 -12 29 -31 67 -49 67 -32 122 -89 150 -156 9 -22 20 -42 24
-45 28 -19 64 -83 63 -112 -1 -51 -4 -67 -10 -65 -15 4 -72 -30 -77 -47 -6
-17 -7 -18 -16 -3 -5 10 -14 17 -21 17 -29 1 -48 29 -53 80 -3 29 -9 60 -13
69 -5 9 -11 30 -14 46 -8 46 -24 82 -40 88 -9 3 -17 28 -21 70 -8 68 -23 85
-60 65 -15 -8 -47 -61 -46 -74 1 -3 -6 -11 -14 -17 -10 -8 -18 -35 -22 -74 -6
-59 -5 -63 22 -88 16 -15 29 -31 29 -36 0 -5 7 -14 15 -19 9 -6 15 -27 17 -60
2 -57 -5 -60 -17 -7 -5 23 -4 40 4 47 8 9 6 11 -10 6 -16 -5 -26 0 -40 21 -10
16 -17 33 -16 39 1 6 -11 11 -28 11 -16 0 -30 -3 -30 -6 0 -4 -15 -22 -33 -41
-33 -34 -117 -153 -117 -165 0 -11 -63 -85 -68 -80 -3 2 14 35 36 72 23 37 51
104 63 148 12 44 29 90 37 104 15 22 15 23 -3 18 -11 -4 -39 -10 -61 -15 -56
-13 -129 -65 -161 -115 -15 -23 -39 -76 -55 -117 -16 -41 -38 -94 -48 -117
-11 -24 -20 -47 -20 -51 0 -5 -12 -22 -26 -37 -15 -17 -24 -35 -21 -46 3 -12
0 -19 -8 -19 -9 0 -16 -17 -21 -45 -3 -25 -9 -45 -13 -45 -4 0 -12 -13 -18
-30 -8 -21 -8 -30 1 -34 6 -2 3 -5 -6 -5 -11 -1 -15 -6 -12 -16 4 -10 -3 -18
-21 -25 -14 -5 -28 -10 -30 -10 -11 0 5 146 24 219 12 46 20 85 18 88 -6 6
-34 -80 -43 -131 -4 -22 -17 -55 -30 -74 -13 -19 -24 -39 -24 -45 0 -5 -12 -7
-27 -4 -31 6 -55 -1 -47 -14 3 -5 -2 -9 -10 -9 -9 0 -16 -6 -16 -12 0 -10 -2
-10 -9 0 -6 10 -14 4 -29 -22 -16 -27 -27 -35 -46 -34 -13 1 -22 6 -20 10 3 5
-3 11 -13 15 -25 9 -31 19 -48 83 -31 109 -60 190 -68 190 -5 0 -6 -10 -3 -22
30 -103 46 -181 51 -239 l5 -69 -25 16 c-13 9 -30 12 -36 8 -8 -4 -9 -3 -5 4
4 7 2 12 -4 12 -6 0 -13 -7 -17 -16 -6 -15 -8 -15 -20 2 -12 16 -16 17 -34 6
-12 -8 -18 -9 -15 -4 7 12 -21 25 -35 16 -5 -3 -9 0 -9 6 0 6 -5 8 -12 4 -8
-5 -9 -2 -5 9 4 11 1 17 -8 17 -8 0 -15 8 -15 18 0 11 -9 29 -20 42 -11 13
-20 29 -20 37 0 7 -4 13 -8 13 -5 0 -16 18 -26 40 -10 22 -22 40 -27 40 -6 0
-8 -3 -6 -7 2 -5 12 -26 22 -48 45 -103 57 -125 66 -119 5 3 9 1 9 -5 0 -5 -3
-11 -7 -14 -5 -2 -2 -2 6 0 8 2 11 -2 8 -11 -3 -8 -1 -17 6 -19 7 -3 0 -8 -15
-12 -16 -4 -28 -11 -28 -15 0 -4 -13 -13 -29 -20 -18 -7 -28 -17 -25 -25 3 -7
0 -16 -5 -20 -6 -3 -9 -9 -7 -13 2 -4 -2 -13 -10 -20 -12 -11 -15 -11 -19 0
-10 30 -45 182 -45 197 0 28 -58 139 -78 150 -29 15 -82 23 -82 11 0 -5 24
-26 54 -46 66 -44 81 -72 107 -207 21 -108 19 -137 -9 -165 -17 -17 -109 -31
-99 -15 3 4 -9 8 -26 7 -43 0 -58 6 -50 20 4 6 1 6 -9 -2 -13 -10 -16 -9 -21
9 -4 15 -11 19 -25 15 -13 -5 -30 2 -50 19 -16 14 -36 25 -43 25 -11 0 -11 3
1 10 12 8 11 10 -7 10 -12 0 -29 7 -38 17 -13 13 -18 14 -25 3 -9 -15 -30 -5
-30 16 0 8 -3 13 -7 13 -20 -3 -34 2 -28 11 3 6 1 10 -4 10 -6 0 -11 -5 -11
-12 0 -6 -10 1 -23 15 -12 15 -28 27 -35 27 -7 0 -12 8 -12 18 0 14 -2 15 -10
2 -9 -13 -14 -7 -11 13 0 4 -4 7 -10 7 -5 0 -7 5 -4 10 3 6 -1 10 -9 10 -9 0
-16 7 -16 16 0 8 -4 12 -10 9 -5 -3 -10 -1 -10 4 0 6 -3 10 -7 10 -22 -4 -43
2 -39 10 3 5 -1 12 -10 15 -10 4 -13 2 -8 -6 4 -7 3 -8 -4 -4 -7 4 -12 16 -12
28 0 13 -5 18 -14 15 -9 -4 -17 2 -21 14 -4 10 -11 17 -16 14 -5 -4 -9 -1 -9
5 0 6 -10 22 -22 36 -53 57 -58 64 -51 64 4 0 -2 6 -12 14 -11 8 -24 12 -30 8
-5 -3 -4 2 4 11 12 15 11 17 -8 17 -11 0 -21 6 -21 14 0 7 -9 25 -21 40 -12
15 -19 35 -16 46 3 12 -3 25 -18 36 -19 14 -23 25 -19 51 2 20 0 32 -5 28 -10
-6 -9 9 8 63 8 26 7 34 -7 41 -23 11 -62 4 -84 -16 -10 -8 -28 -17 -40 -19
-13 -2 -41 -8 -63 -13 -55 -14 -124 -12 -163 5 -18 7 -36 13 -40 12 -4 -1 -14
1 -22 5 -8 3 -26 7 -40 10 -43 8 -155 51 -162 63 -4 7 -20 15 -34 18 -15 4
-41 18 -59 32 -17 13 -37 24 -43 24 -7 0 -12 4 -12 9 0 5 -16 16 -35 25 -19 9
-35 21 -35 26 0 6 -6 10 -13 10 -12 0 -27 10 -75 51 -7 6 -16 8 -19 5 -4 -3
-15 1 -25 11 -17 16 -18 15 -15 -5 3 -19 102 -105 158 -138 10 -6 27 -18 36
-26 32 -28 222 -139 296 -173 39 -18 119 -45 177 -60 62 -16 115 -36 129 -49
30 -27 86 -110 132 -197 21 -38 45 -81 56 -96 10 -15 27 -46 38 -68 11 -22 28
-51 38 -65 10 -14 25 -38 33 -55 32 -67 102 -177 144 -227 80 -95 262 -269
304 -290 24 -12 74 -24 121 -29 98 -10 104 -12 135 -29 31 -17 50 -35 50 -49
0 -14 40 -40 80 -51 45 -13 349 -14 380 -2 14 6 34 19 45 31 11 11 28 29 38
40 16 17 34 19 144 20 69 1 130 4 135 7 5 4 8 -89 6 -228 -3 -290 9 -761 23
-890 12 -109 1 -157 -36 -159 -20 0 -20 0 0 -9 19 -7 18 -8 -6 -15 -15 -3 -33
-5 -40 -4 -21 4 -82 -12 -104 -27 -11 -8 -28 -14 -38 -14 -32 0 -74 -29 -97
-66 -16 -25 -26 -66 -35 -137 -14 -116 -10 -164 15 -179 16 -10 17 -31 12
-249 -5 -259 1 -301 51 -346 42 -39 175 -56 213 -28 27 20 33 19 44 -10 9 -25
33 -295 45 -520 14 -260 43 -621 58 -715 l12 -75 489 -3 c270 -1 493 1 497 5
4 5 15 66 24 138 14 119 42 275 49 283 2 1 15 -35 30 -81 14 -47 32 -97 40
-112 8 -16 28 -75 43 -132 l28 -103 549 0 548 0 -6 25 c-4 14 -13 119 -21 233
-8 114 -24 299 -35 412 -11 113 -25 250 -30 305 -12 126 -37 357 -50 455 -8
66 -7 77 8 88 9 7 89 58 177 113 88 56 169 111 180 123 11 12 33 29 49 36 34
18 102 92 164 180 177 253 186 263 466 503 117 101 269 271 311 349 15 29 32
55 36 58 17 12 76 109 93 154 21 55 18 164 -5 193 -12 14 -12 16 1 9 8 -4 6 0
-4 8 -21 17 -47 22 -45 9 1 -5 0 -11 -1 -15 -1 -5 -3 -14 -4 -20 -1 -7 -8 -12
-15 -10 -7 1 -9 -2 -6 -8 4 -6 -3 -19 -15 -30 -12 -10 -22 -22 -22 -27 0 -4
-7 -17 -14 -28 -14 -19 -14 -19 -14 4 0 21 -13 23 -16 3 0 -4 -11 -29 -24 -57
-13 -27 -24 -53 -25 -56 0 -3 -8 -13 -18 -23 -9 -10 -15 -21 -12 -26 3 -4 -2
-13 -10 -20 -8 -7 -15 -16 -15 -21 0 -12 -37 -49 -43 -42 -3 2 -8 -5 -12 -16
-3 -12 -11 -21 -16 -21 -5 0 -9 -5 -9 -11 0 -12 -30 -53 -45 -60 -13 -6 -59
-53 -58 -59 1 -3 -3 -12 -8 -20 -4 -8 -9 -12 -9 -8 0 12 -40 -25 -40 -38 0 -6
-9 -19 -20 -29 -11 -10 -20 -15 -20 -12 0 4 -16 -10 -35 -30 -19 -20 -35 -41
-35 -47 0 -5 -3 -7 -6 -4 -7 7 -44 -28 -44 -41 0 -6 -13 -24 -30 -42 -16 -18
-27 -36 -24 -41 3 -4 1 -8 -4 -8 -5 0 -15 -11 -22 -25 -7 -14 -21 -25 -30 -25
-9 0 -32 -18 -51 -39 -19 -22 -37 -40 -41 -40 -5 -1 -13 -1 -18 -1 -6 0 -10
-6 -9 -12 3 -27 -2 -37 -21 -43 -11 -3 -20 -13 -20 -21 0 -8 -4 -12 -10 -9 -5
3 -10 0 -10 -8 0 -7 -9 -23 -19 -34 -11 -12 -17 -24 -14 -27 4 -3 1 -6 -5 -6
-7 0 -12 -7 -12 -15 0 -21 -18 -19 -23 3 -4 15 -5 15 -6 -2 -1 -19 -71 -104
-71 -86 0 5 -8 2 -18 -8 -10 -9 -33 -28 -52 -42 -18 -14 -39 -31 -46 -38 -7
-6 -17 -12 -23 -12 -6 0 -11 -5 -11 -11 0 -5 -4 -8 -9 -5 -8 5 -30 -34 -32
-57 0 -7 -32 -39 -71 -72 -39 -33 -78 -67 -87 -75 -9 -8 -29 -21 -44 -27 -47
-22 -33 12 34 80 70 70 112 131 107 155 -6 30 -50 20 -95 -21 -23 -21 -65 -54
-94 -73 -29 -19 -50 -34 -46 -34 4 0 -8 -14 -26 -30 -41 -35 -47 -37 -47 -10
0 28 -14 25 -47 -12 -57 -63 -76 -78 -102 -78 -34 0 -51 17 -51 50 0 27 55 81
180 174 124 93 198 179 170 196 -19 12 -40 2 -85 -40 -22 -20 -56 -47 -77 -59
-20 -12 -39 -29 -42 -37 -4 -9 -13 -14 -21 -10 -9 3 -29 -7 -49 -24 -18 -16
-36 -27 -40 -23 -3 3 -6 1 -6 -5 0 -7 -6 -12 -13 -12 -7 0 -23 -14 -37 -31
-24 -29 -95 -85 -137 -107 -16 -9 -29 -7 -59 7 -30 15 -42 17 -53 8 -26 -22
-1 34 40 88 37 49 229 229 339 318 30 24 61 56 69 71 8 14 18 26 23 26 4 0 8
5 8 11 0 13 -54 5 -115 -17 -22 -8 -44 -16 -50 -18 -25 -6 -72 -36 -95 -61
-37 -40 -139 -119 -184 -143 -29 -16 -43 -19 -53 -11 -7 6 -20 8 -29 5 -9 -4
-23 -1 -30 5 -11 9 -14 7 -15 -7 -1 -15 -3 -13 -10 6 -7 21 -8 20 -6 -12 2
-25 0 -35 -7 -28 -13 13 -12 62 3 96 12 28 110 119 189 176 76 55 258 148 312
158 30 6 98 23 150 37 52 14 115 30 140 35 47 11 77 28 48 28 -9 0 -19 9 -23
20 -3 10 -28 35 -55 55 -27 20 -52 45 -55 55 -17 54 51 333 121 495 7 17 22
62 33 100 87 303 99 329 131 290 6 -8 21 -17 33 -21 24 -8 157 -103 206 -148
18 -17 44 -53 56 -79 48 -102 153 -131 224 -63 20 18 118 75 218 126 193 98
223 107 319 91 29 -4 51 -4 48 1 -6 10 53 15 85 7 14 -4 29 48 34 113 1 13 5
14 20 6 10 -5 21 -7 24 -4 9 9 -7 56 -26 75 -10 10 -23 27 -29 37 -11 20 -72
29 -72 11 0 -6 -8 -3 -18 6 -10 10 -21 14 -25 11 -3 -4 -13 1 -22 10 -9 9 -23
16 -31 16 -11 0 -10 6 4 34 9 19 20 32 24 29 5 -2 15 0 24 5 15 8 15 10 0 15
-9 4 -16 14 -16 24 0 25 -49 123 -50 99 0 -14 -3 -17 -11 -9 -10 10 -17 33
-18 64 -1 18 -33 32 -66 29 -37 -3 -105 -32 -98 -43 3 -6 1 -7 -6 -3 -16 10
-118 -52 -124 -76 -3 -10 -12 -18 -21 -18 -24 0 -87 -45 -119 -85 -15 -19 -33
-35 -40 -35 -18 0 112 122 179 167 75 51 170 99 212 108 43 9 41 25 -3 18 -29
-5 -36 -2 -46 18 -10 23 -37 50 -176 176 -35 31 -63 61 -63 67 0 6 -18 27 -40
46 -22 19 -40 43 -40 53 0 9 -11 22 -24 26 -13 5 -26 17 -30 26 -3 9 -9 14
-13 12 -10 -6 -34 19 -26 27 4 3 -1 6 -10 6 -9 0 -19 5 -23 12 -4 7 -3 8 4 4
7 -4 12 -5 12 -2 0 2 -12 11 -27 19 -68 35 -87 47 -78 47 6 0 -6 14 -25 30
-35 30 -35 30 -52 10 -10 -12 -19 -16 -23 -10 -11 17 -25 11 -25 -10 0 -17 -3
-19 -19 -10 -28 15 -38 12 -16 -4 18 -13 18 -14 -8 -9 -21 4 -27 1 -27 -11 0
-10 -4 -14 -10 -11 -5 3 -10 -3 -10 -15 0 -12 -4 -19 -9 -16 -5 3 -14 -1 -21
-10 -10 -11 -10 -18 -2 -26 7 -7 12 -16 12 -22 0 -6 -5 -5 -12 2 -15 15 -31
16 -22 1 4 -7 1 -10 -7 -7 -8 3 -22 -7 -31 -21 -10 -14 -18 -20 -18 -13 0 8
-8 5 -22 -8 -15 -13 -29 -18 -42 -14 -19 6 -19 5 -7 -10 12 -14 11 -16 -10
-12 -13 2 -30 -1 -36 -6 -9 -7 -13 -7 -13 1 0 9 -5 9 -20 1 -11 -6 -20 -18
-20 -28 0 -12 -3 -13 -8 -5 -6 9 -12 7 -22 -7 -16 -23 -36 -26 -44 -7 -3 6 -5
-2 -3 -19 2 -17 -3 -36 -10 -43 -10 -9 -13 -9 -13 0 0 23 -12 1 -25 -48 -26
-93 -15 -10 15 115 53 220 166 412 278 469 20 11 38 25 40 31 1 7 -17 2 -45
-12 -79 -40 -165 -144 -220 -265 -52 -115 -56 -126 -57 -141 -5 -61 -36 -124
-36 -72 0 14 -2 15 -9 2 -6 -8 -7 -18 -4 -23 3 -5 -4 -4 -16 2 -19 11 -25 8
-23 -10 1 -4 -10 -17 -24 -30 l-25 -23 -25 27 c-14 15 -27 27 -29 27 -8 0 -1
-24 8 -31 5 -3 -1 -9 -12 -12 -20 -5 -25 3 -24 39 0 7 -6 11 -13 10 -17 -3
-31 -16 -16 -16 6 0 17 -13 25 -28 12 -26 12 -31 -4 -50 -9 -12 -23 -22 -31
-22 -8 0 -14 -9 -15 -20 -1 -11 2 -18 8 -15 5 4 9 -1 9 -9 0 -19 -6 -20 -24
-4 -10 9 -11 20 -5 36 5 13 7 28 3 33 -3 5 0 9 6 9 6 0 8 5 5 10 -3 6 1 10 10
10 11 0 15 -5 11 -15 -3 -8 -1 -15 4 -15 14 0 8 53 -8 69 -13 13 -11 18 12 37
28 25 34 50 14 57 -10 3 -10 9 1 29 9 19 10 31 3 45 -6 11 -10 41 -8 68 2 38
8 53 30 71 14 13 26 26 25 30 0 3 18 27 42 54 23 26 44 58 46 70 4 26 43 79
43 59 0 -9 3 -10 8 -4 4 6 19 16 35 22 15 7 27 17 27 22 0 6 7 8 15 5 20 -8
61 20 68 46 6 23 -4 23 -60 4 -17 -7 -17 -6 0 12 14 15 32 19 82 19 72 0 74 5
7 21 l-47 12 50 1 50 1 -35 20 c-19 11 -73 39 -120 61 -77 37 -87 40 -121 30
-58 -17 -77 -14 -93 18 -9 16 -12 31 -9 35 4 3 0 6 -9 6 -24 0 -63 52 -77 103
-8 26 -17 47 -21 47 -4 0 -6 18 -5 40 1 22 -2 37 -6 34 -4 -2 -13 13 -19 35
-12 45 -24 57 -65 63 -30 4 -30 4 -33 -51 -4 -61 -9 -73 -22 -51 -8 12 -10 11
-10 -5 0 -14 -3 -16 -11 -8 -13 13 -8 205 6 238 8 17 5 17 -22 -5 -17 -14 -36
-34 -43 -45 -15 -27 -52 -52 -44 -30 4 8 10 15 14 15 5 0 19 21 31 48 13 26
27 52 31 57 5 6 18 22 31 37 12 15 33 49 47 75 14 26 27 50 30 53 15 14 48
105 56 155 3 17 7 40 9 53 2 12 -2 22 -8 23 -7 0 -3 4 8 9 17 7 17 9 3 9 -11
1 -15 6 -12 16 4 8 10 12 15 9 5 -3 6 2 3 10 -3 9 -10 13 -15 10 -5 -3 -9 -2
-7 3 1 4 -3 26 -10 48 -6 22 -12 54 -13 70 -2 17 -8 36 -14 44 -7 11 -7 13 3
7 8 -5 12 0 12 17 0 13 -3 27 -7 31 -13 12 -11 36 2 36 10 0 12 7 5 29 -4 16
-5 33 -2 37 4 4 1 4 -5 0 -7 -4 -13 -2 -13 3 0 6 -9 11 -20 11 -13 0 -18 -5
-14 -15z m-371 -1445 c-14 -16 -16 -23 -7 -32 9 -9 12 -7 12 10 0 28 36 30 43
2 3 -11 1 -20 -5 -20 -5 0 -7 -9 -3 -19 3 -11 1 -22 -5 -26 -14 -8 -13 -62 2
-71 7 -4 8 -3 4 4 -11 18 29 15 44 -3 7 -8 17 -15 22 -15 22 0 72 -75 62 -92
-5 -7 -3 -8 6 -3 10 6 12 4 7 -9 -4 -10 -7 -22 -7 -28 0 -6 -12 1 -26 15 -15
15 -30 24 -35 22 -4 -3 -21 14 -38 38 -16 24 -36 49 -45 56 -9 8 -16 26 -16
42 0 22 -5 29 -20 29 -11 0 -37 15 -57 34 -41 37 -90 45 -85 14 2 -12 -12 -25
-40 -40 -24 -12 -46 -21 -50 -20 -3 1 -20 -14 -37 -33 -17 -19 -33 -35 -36
-35 -16 0 -195 -176 -195 -191 0 -5 -13 -30 -30 -57 -16 -27 -37 -66 -45 -88
l-16 -39 26 28 c14 15 25 33 25 40 0 20 62 54 108 60 23 3 42 1 42 -4 0 -15
14 -10 43 17 15 14 32 22 38 19 6 -4 16 0 22 8 7 8 26 18 42 21 50 11 54 12
60 18 3 3 22 2 41 -2 20 -5 37 -4 40 2 3 5 11 4 20 -3 11 -9 14 -9 14 0 0 8 5
9 16 3 9 -5 25 -7 35 -5 11 3 19 0 19 -6 0 -6 3 -10 8 -9 15 3 62 -22 62 -33
0 -6 7 -8 16 -5 9 3 12 2 9 -5 -4 -5 -2 -16 5 -24 6 -7 9 -26 6 -42 -2 -15 -5
-32 -5 -36 -1 -5 -6 -5 -12 -1 -7 4 -9 -1 -7 -12 4 -18 -11 -53 -51 -119 -10
-17 -21 -47 -25 -67 -4 -21 -14 -42 -24 -47 -14 -9 -14 -11 -2 -12 8 -1 18 -1
21 -1 3 1 5 -9 4 -21 -1 -12 2 -30 7 -41 6 -10 7 -34 3 -54 l-6 -35 -257 6
c-306 8 -748 26 -779 33 -31 6 -30 49 1 117 14 29 30 81 37 117 18 99 50 199
75 236 23 33 23 34 3 34 -18 0 -17 2 8 24 21 19 29 21 31 10 3 -10 11 -6 32
14 42 43 93 64 134 57 44 -9 83 24 66 55 -5 10 -9 27 -9 37 1 16 2 15 6 -2 3
-11 12 -28 20 -37 9 -10 17 -37 19 -60 2 -24 8 -44 14 -46 5 -2 10 -15 10 -28
0 -16 4 -23 11 -18 6 3 8 18 4 33 l-6 26 17 -24 c16 -22 16 -25 -1 -55 -23
-40 -9 -26 83 84 67 80 111 124 192 195 72 63 114 94 122 89 4 -3 19 3 34 12
25 17 76 31 123 33 24 1 24 1 6 -19z m805 -74 c0 -2 -7 -7 -16 -10 -8 -3 -12
-2 -9 4 6 10 25 14 25 6z m-1421 -91 c0 -5 -6 -1 -14 9 -8 11 -15 24 -15 30 0
5 7 1 15 -10 8 -10 14 -23 14 -29z m36 -81 c8 -19 18 -33 23 -30 5 3 16 -10
25 -29 21 -43 5 -46 -25 -5 -19 26 -23 28 -29 13 -5 -15 -6 -14 -11 5 -4 14
-2 20 4 16 9 -6 6 12 -9 54 -12 29 8 9 22 -24z m744 -88 c-3 -3 -11 5 -18 17
-13 21 -12 21 5 5 10 -10 16 -20 13 -22z m68 -16 c18 0 16 -17 -3 -24 -9 -4
-18 -5 -18 -4 -14 24 -22 56 -18 68 4 11 9 7 16 -12 5 -16 16 -28 23 -28z
m-1255 -2 c-7 -7 -12 -8 -12 -2 0 14 12 26 19 19 2 -3 -1 -11 -7 -17z m65 -70
c-3 -8 -6 -5 -6 6 -1 11 2 17 5 13 3 -3 4 -12 1 -19z m2180 -8 c1 -11 -2 -20
-8 -20 -10 0 -12 23 -2 33 9 9 9 10 10 -13z m-3462 -41 c11 -17 0 -20 -21 -4
-17 13 -17 14 -2 15 9 0 20 -5 23 -11z m3425 3 c0 -4 -9 -8 -20 -8 -11 0 -20
4 -20 8 0 4 9 8 20 8 11 0 20 -4 20 -8z m-2510 -188 c0 -8 -5 -12 -10 -9 -6 4
-8 11 -5 16 9 14 15 11 15 -7z m-589 -47 c-6 -8 -8 -17 -4 -20 3 -4 1 -7 -5
-7 -16 0 -15 27 1 33 19 8 20 8 8 -6z m593 -22 c14 -14 20 -25 13 -25 -7 0
-23 12 -36 25 -30 33 -9 33 23 0z m2846 -558 c0 -2 -17 -19 -37 -38 l-38 -34
34 38 c33 34 41 42 41 34z m332 -166 c-4 -12 -11 -21 -14 -19 -4 2 -17 -7 -31
-18 -29 -26 -60 -17 -38 10 8 9 22 16 33 16 10 0 21 7 24 15 4 8 10 12 15 9 5
-3 9 0 9 7 0 7 2 10 5 7 3 -3 2 -15 -3 -27z m-2355 -538 c-8 -39 -8 -62 2 -93
l12 -42 59 4 c64 3 67 -12 4 -19 -20 -2 -50 -11 -66 -19 -16 -8 -37 -13 -47
-9 -15 4 -19 -4 -28 -52 -14 -75 -79 -188 -98 -170 -10 10 -9 13 6 19 26 10
69 100 76 158 3 27 1 69 -5 93 -14 56 0 110 34 134 14 10 33 26 42 35 9 10 17
16 18 15 1 -1 -3 -25 -9 -54z m166 -2 c9 -16 17 -40 16 -53 -1 -19 -3 -17 -10
10 -5 17 -12 32 -14 32 -2 0 -2 -15 0 -32 l5 -33 -14 35 c-27 66 -15 95 17 41z
m19 -133 c4 -57 -12 -98 -40 -98 -12 0 -10 4 7 16 21 15 23 22 18 75 -3 33 -1
59 3 59 4 0 10 -24 12 -52z m-127 -66 c-3 -3 -11 0 -18 7 -9 10 -8 11 6 5 10
-3 15 -9 12 -12z m90 8 c-3 -5 -14 -10 -23 -10 -15 0 -15 2 -2 10 20 13 33 13
25 0z m-125 -51 c-7 -11 -14 -19 -16 -16 -7 7 7 37 17 37 6 0 5 -9 -1 -21z
m-20 -74 c0 -11 -32 -67 -36 -63 -6 7 19 68 28 68 4 0 8 -2 8 -5z m-36 -71
c23 -9 20 -27 -4 -21 -11 3 -23 1 -26 -4 -7 -12 -51 -11 -59 1 -3 6 5 10 19
10 14 0 28 5 31 10 7 12 17 12 39 4z m-352 -405 c221 -22 261 -29 295 -50 19
-12 32 -23 29 -26 -2 -3 -15 3 -29 12 -42 27 -81 33 -272 40 -140 5 -189 4
-200 -5 -18 -15 -19 -7 -5 21 13 22 35 24 182 8z m193 -64 c6 -2 -28 -4 -75
-4 -47 0 -91 3 -99 8 -13 8 149 4 174 -4z m75 1 c0 -2 -7 -9 -15 -16 -13 -11
-14 -10 -9 4 5 14 24 23 24 12z m-463 -158 c-2 -13 -4 -3 -4 22 0 25 2 35 4
23 2 -13 2 -33 0 -45z m165 -7 c4 -3 -12 -5 -35 -3 -23 2 -45 7 -49 11 -4 3
12 5 35 3 23 -2 45 -7 49 -11z m1 -188 c-7 -2 -21 -2 -30 0 -10 3 -4 5 12 5
17 0 24 -2 18 -5z m185 -30 c-10 -2 -26 -2 -35 0 -10 3 -2 5 17 5 19 0 27 -2
18 -5z"/>
<path d="M12170 4701 c0 -5 5 -13 10 -16 6 -3 10 -2 10 4 0 5 -4 13 -10 16 -5
3 -10 2 -10 -4z"/>
<path d="M12145 4500 c4 -6 1 -19 -7 -28 -12 -15 -11 -16 5 -3 19 15 23 41 6
41 -5 0 -7 -5 -4 -10z"/>
<path d="M12125 4374 c-9 -14 -14 -28 -12 -31 3 -3 13 9 22 26 19 38 14 41
-10 5z"/>
<path d="M11480 4350 c-6 -11 -8 -20 -6 -20 3 0 10 9 16 20 6 11 8 20 6 20 -3
0 -10 -9 -16 -20z"/>
<path d="M11563 4313 c7 -44 -5 -63 -53 -82 l-25 -10 26 0 c37 -1 69 37 69 82
0 20 -5 39 -12 43 -8 5 -9 -4 -5 -33z"/>
<path d="M11461 4304 c0 -11 3 -14 6 -6 3 7 2 16 -1 19 -3 4 -6 -2 -5 -13z"/>
<path d="M11618 4269 c-9 -29 -14 -56 -12 -58 7 -8 35 71 32 92 -2 14 -9 2
-20 -34z"/>
<path d="M11535 4280 c-3 -5 -2 -10 4 -10 5 0 13 5 16 10 3 6 2 10 -4 10 -5 0
-13 -4 -16 -10z"/>
<path d="M11341 4195 c-6 -22 -13 -58 -16 -80 -3 -27 2 -17 15 30 11 39 18 75
16 80 -2 6 -8 -8 -15 -30z"/>
<path d="M12033 6119 c-15 -17 -27 -35 -26 -39 8 -30 -288 -110 -477 -129
-117 -12 -225 2 -258 32 -23 21 -39 22 -22 2 7 -8 33 -54 57 -103 25 -48 60
-106 79 -129 39 -48 123 -93 173 -93 63 0 165 22 216 47 120 60 180 124 281
301 23 41 43 69 45 63 3 -8 11 -6 24 4 15 12 16 18 7 22 -7 3 -26 16 -42 29
l-29 25 -28 -32z m-206 -188 c4 -16 9 -18 39 -9 20 5 40 8 46 6 24 -8 -203
-70 -287 -78 -123 -12 -275 11 -275 42 0 4 -5 7 -11 6 -6 -2 -13 4 -14 13 -2
13 19 15 159 16 88 1 184 6 211 11 87 17 126 15 132 -7z"/>
<path d="M8000 5805 c0 -3 18 -23 40 -44 22 -21 40 -45 40 -54 0 -15 74 -66
194 -134 46 -26 61 -31 68 -21 12 19 10 28 -8 35 -13 5 -13 8 -2 15 9 7 7 8
-7 4 -21 -5 -56 18 -172 117 -37 33 -77 62 -88 67 -40 15 -65 21 -65 15z"/>
<path d="M7816 5641 c10 -10 96 -32 102 -26 4 3 -93 35 -107 35 -3 0 -1 -4 5
-9z"/>
<path d="M7996 5554 c37 -25 88 -62 113 -83 26 -20 68 -47 94 -61 45 -24 47
-24 64 -6 17 17 17 18 -3 12 -22 -7 -135 61 -207 123 -20 18 -42 34 -49 35 -7
1 -23 7 -35 14 -52 29 -38 8 23 -34z"/>
<path d="M11708 5573 c-16 -2 -28 -9 -28 -14 0 -14 24 -11 46 6 10 8 17 14 14
13 -3 0 -17 -3 -32 -5z"/>
<path d="M11567 5553 c18 -2 50 -2 70 0 21 2 7 4 -32 4 -38 0 -55 -2 -38 -4z"/>
<path d="M7935 5388 c46 -23 218 -130 225 -139 11 -14 50 -29 50 -20 0 6 -10
16 -22 22 -12 6 -30 19 -40 29 -10 9 -43 30 -73 46 -30 15 -55 31 -55 35 0 8
-94 49 -112 49 -7 -1 5 -10 27 -22z"/>
<path d="M13356 4615 c-5 -14 17 -28 28 -18 10 10 7 21 -8 26 -8 3 -17 0 -20
-8z"/>
<path d="M10240 4604 c0 -7 9 -22 20 -35 25 -31 26 -12 0 21 -11 14 -20 20
-20 14z"/>
<path d="M12792 4330 c0 -14 2 -19 5 -12 2 6 2 18 0 25 -3 6 -5 1 -5 -13z"/>
<path d="M12704 4285 c-3 -8 -3 -19 0 -24 7 -11 36 -4 36 10 0 4 -7 6 -15 3
-11 -5 -13 -2 -9 10 3 9 3 16 0 16 -4 0 -9 -7 -12 -15z"/>
<path d="M10016 4228 c3 -4 9 -8 15 -8 5 0 9 4 9 8 0 5 -7 9 -15 9 -8 0 -12
-4 -9 -9z"/>
<path d="M14350 3299 c0 -5 -4 -7 -10 -4 -5 3 -10 -1 -10 -9 0 -10 6 -13 15
-10 14 6 22 34 10 34 -3 0 -5 -5 -5 -11z"/>
</g>
</svg>
